<svg width="32" height="32" viewBox="0 0 32 32" fill="none" xmlns="http://www.w3.org/2000/svg">
  <rect width="32" height="32" rx="8" fill="#050505"/>
  <path d="M8 6H18C21.3137 6 24 8.68629 24 12C24 14.108 22.9113 15.962 21.25 17.051C22.9113 18.14 24 19.994 24 22.102C24 25.4157 21.3137 28.102 18 28.102H8V6Z" fill="#FF007A"/>
  <path d="M12 10V14H18C19.1046 14 20 13.1046 20 12C20 10.8954 19.1046 10 18 10H12Z" fill="#050505"/>
  <path d="M12 18V24H18C19.1046 24 20 23.1046 20 22C20 20.8954 19.1046 20 18 20H12Z" fill="#050505"/>
  <path d="M24 12L28 8M24 22L28 26" stroke="#00E5FF" stroke-width="2" stroke-linecap="round"/>
  <circle cx="28" cy="8" r="1.5" fill="#00E5FF"/>
  <circle cx="28" cy="26" r="1.5" fill="#00E5FF"/>
</svg>
